<?xml version="1.0" encoding="utf-8"?>
<!-- Generator: Adobe Illustrator 24.2.3, SVG Export Plug-In . SVG Version: 6.00 Build 0)  -->
<svg version="1.1" id="Capa_1" xmlns="http://www.w3.org/2000/svg" xmlns:xlink="http://www.w3.org/1999/xlink" x="0px" y="0px"
	 viewBox="0 0 101 93.2" style="enable-background:new 0 0 101 93.2;" xml:space="preserve">
<style type="text/css">
	.st0{fill:#FFFFFF;}
</style>
<g>
	<path class="st0" d="M33.9,58.3h42.3c1,0,2-0.7,2.3-1.7l9.4-32.8c0.2-0.7,0.1-1.5-0.4-2.1c-0.4-0.6-1.1-0.9-1.9-0.9H28.5l-1.7-7.5
		c-0.2-1.1-1.2-1.8-2.3-1.8H10.3c-1.3,0-2.3,1-2.3,2.3c0,1.3,1,2.3,2.3,2.3h12.3l8.5,38.1c-2.5,1.1-4.2,3.6-4.2,6.4c0,3.9,3.2,7,7,7
		h42.3c1.3,0,2.3-1,2.3-2.3c0-1.3-1-2.3-2.3-2.3H33.9c-1.3,0-2.3-1.1-2.3-2.3S32.6,58.3,33.9,58.3z"/>
	<path class="st0" d="M31.6,74.7c0,3.9,3.2,7,7,7c3.9,0,7-3.2,7-7c0-3.9-3.2-7-7-7C34.7,67.7,31.6,70.8,31.6,74.7z"/>
	<path class="st0" d="M64.6,74.7c0,3.9,3.2,7,7,7c3.9,0,7-3.2,7-7c0-3.9-3.2-7-7-7C67.7,67.7,64.6,70.8,64.6,74.7z"/>
</g>
</svg>
