<svg xmlns="http://www.w3.org/2000/svg" width="3.509" height="78.012" viewBox="0 0 3.509 78.012">
  <path id="Path_1" data-name="Path 1" d="M851.9,690.575c-.008.306.393.144.622.208.114.365-.294.169-.5.293.106.228.473.4.458.571-.066.013-.09.046-.172.008.318.24.015.713.415.993a.283.283,0,0,1-.1.037,1.994,1.994,0,0,1,.549-.043c.007.137.253.254-.009.3.008-.084-.1-.091-.179-.13l.113.144c-.376.128-.13-.2-.408-.2.122.279.433.6.328.819-.369.045-.125-.5-.452-.215l.141-.331c-.582.253.04-.2-.582.031-.106.436.188.488.081.923.2.1.3-.032.507.066.368.618-.925.486-.435.941.245.118.711.164.465.487l-.416-.11c-.042.422.6.241.318.683-.164-.079-.138-.332-.188-.268-.328.286.236.2.236.423l-.369.045c.059.45.325.945.392,1.443-.109-.027-.225-.113-.338,0a3.27,3.27,0,0,1-.263,1.946l.318.231c0,.054-.144.1-.2.042-.121.236.2.012.326.126.022.134-.182.177-.278.092.27.417.581,1.187.241,1.626l-.1-.086c-.129.342.652.386.356.7l-.057-.061c-.138.742.154,1.562-.327,2.128.458.107-.2.733.435.781-.317.424-.431.3-.644.9-.029.159.4.238.466.435l-.335,0,.351.268-.4.142.086.185a.262.262,0,0,1,.245-.146c.152.289-.232.7-.4.711l.282.683c-.134-.015-.181-.13-.266-.22.341.364-.352.066-.039.4.075-.045.2.024.266.032a.825.825,0,0,0-.118.825l-.231-.053c-.058.506.111,1.067.106,1.636.108-.2.507-.157.546.009l-.354.067c.219.107.133-.174.4.047-.041.212-.4.143-.517.021l.123.258c-.106.015-.162-.045-.3-.061.22.106-.354.445.026.6l-.1.014c0,.569.118.826.136,1.289.3.009.237.19.484.328a3.323,3.323,0,0,0-.311,1.127c.151.288.258.084.439.214-.278.021-.252.43-.451.218a3.682,3.682,0,0,0,.281,1.25c.113-.067.163-.143.258-.1.045.113-.117.257-.25.241l-.029-.03c.416.7-.81,1.612-.231,2.167l-.028-.031.3.577c-.048.265-.208-.159-.38.037.463.622-.067.983.241,1.495-.819.4.058,1.406-.465,1.942l.193-.031c.189.138-.111.167-.154.269.149-.014.173-.15.277-.064.233,1.171-.281,2.418-.455,3.619-.052.439,1,.25.537.8l-.358-.158c.429.887-.015,1.813.349,2.681-.082-.052-.19-.053-.188-.138-.261.183-.013.678.2.681-.025.135-.193.031-.3.114-.153.184.333.462.074.56-.042.016-.085-.052-.1-.085.126.119-.032.558.269.443-.144.326.133.623-.045.883.336.169-.161.557.313.611-.49-.023-.4.571-.165.777-.148-.068-.153.179-.359.1.007.235.1.45.35.409-.586.433.473.87-.279,1.114a11.349,11.349,0,0,1,.556,1.973c-.488-.023-.048-.7-.561-.668.2.6.62.94.5,1.53-.067.153-.212-.086-.3-.138.2.6-.044,1.151.222,1.681-.046,0-.1-.059-.133-.113.016.105-.072.243.15.231l-.06-.1c.323-.166.674.415.844.434-.636-.178-.159.523-.965.241a.31.31,0,0,0,.3.139c-.043.1-.13.135-.3.031.121.374.358.241.353.58-.108,0-.15-.07-.276-.1.209.172.42.344.329.63-.065-.017-.15.017-.148-.069.032.492.559.838.356,1.378-.468-.16-.154.183-.559.212l.121.289.2-.116c-.007.254.288.479.156.7l-.167-.189.077.477.154-.27c.208.257.511-.027.4.31-.042-.068-.005.254-.244.387h0c.129.126.265.256.164.443-.129.049-.448-.039-.533-.007.338.123.093.595.454.752a.609.609,0,0,0-.341-.038l.275.1c-.088.118-.131.135-.3.116-.05.354.514-.113.293.308-.023-.034-.064-.018-.106-.087-.115.423.175.815.039,1.2-.407.114-.1-.339-.443-.208.074.559.489,1.157.393,1.7l.045-.1c.575.075-.285.4-.014.677-.042-.067-.319-.088-.255-.07-.092.371.142.758.323,1.319l-.148-.07c-.132.219-.076.576-.143.811.147.07.123.205.338.123-.841.728.451,1.388-.25,2.033,0-.077-.129-.184-.13-.123l.136.55c.251-.044.152-.072.347-.188a.447.447,0,0,1,.264.362c-.166-.248-.4,0-.542.108.076-.018.161.019.239.01-.445.287.5.048.2.44l-.132-.021c.068.147.242.282.2.44-.29.066-.135-.156-.373-.166.016.222.548.439.259.64-.081-.1-.082-.231-.162-.325-.34.219-.254.245-.308.407l.008-.016-.154.376.092-.1c.756.279.138.567.633.942-.468-.364-.271-.061-.6-.089-.091.1-.194.241-.286.2.265.177-.209.3.179.545-.106.012-.01.19-.276.15.083.23.184-.055.317-.035.36.355-.438.834.057,1.344.2.44.561.522.738.93-.169.138-.385-.113-.385-.113a.484.484,0,0,0-.006.6c-.092-.042-.17,0-.289.065.028.169.385.113.229.335a1.783,1.783,0,0,1-.424-.168c.1.2.294.394.39.6-.185.055-.28-.123-.4-.2.084.23.168.6.459.668l.105-.148c.014.084-.251.043-.3-.019-.228-.2.1-.284.208-.295l.068.146c.62-.151-.1-.587-.064-.881l.451.122-.374-.3c.117-.064.369-.108.437.038.222-.211-.161-.187.088-.368a.058.058,0,0,1,.078.007l-.134-.206c.095.041.318-.034.253.093.26-.37-.338-.6,0-.736l.027.031c-.152-.513-.331-.049-.719-.434l.816-.259-.331-.05c.012-.053.037-.158.17-.139-.228-.2-.144.034-.359-.081.3-.254-.141-.7.387-.759-.252-.092-.194.243-.369-.029.567-.077-.1-.314.163-.547.292.072.138.292.4.059-.495-.14.108-.453.014-.649-.395-.01-.165-.427-.3-.757.132.022.216-.619.359-.926l.066.01c-.4-.06-.323-.376-.406-.606a.5.5,0,0,1,.44.175l0-.216a.37.37,0,0,1-.241-.259l.3.054c-.017-.288-.351-.58-.152-.951-.278-.02-.773.295-.958-.1.149-.014.406-.029.468.074-.019-.034-.125-.12-.061-.187l.253.156c.111-.169-.211-.088-.188-.223.214,0,.153-.1.323-.081.021.035-.089.118,0,.17a.6.6,0,0,1,.327-.4c-.122.013-.288,0-.316-.111-.016-.288.257-.1.368-.267-.149-.07.005-.253-.315-.258,0-.085.151-.1.237-.133-.14-.149-.04-.7-.38-.528l-.023.038c-.006-.006-.007-.015-.014-.024h0c-.318-.489.182-1.015.045-1.5h.107c-.123-.289-.073-.643-.3-.85,0-.086.2-.2.323-.166-.08-.221-.2-.245-.024-.565.187.222.166-.077.137.228.092-.287.264-.352-.029-.661.274.1.346-.217.263-.353l-.2.2a.963.963,0,0,1,.008-.425l.361.073c.438-.587-.747-1.06-.013-1.507-.252-.156-.177.319-.472.18.048-.271.566-.552.567-.637.2-.371-.527-.346-.39-.734a.457.457,0,0,1-.594-.193c.048-.271.541-.333.644-.162.01.065-.03.1-.074.094.047.087.1.2.242.094l-.13-.035c.132-.134.118-.506.329-.419-.122-.2-.211-.087-.277.064.186-.347.005-.542.13-.9-.07.057-.222.11-.22.053.159-.524-.244-.231-.3-.586.2-.2.469.073.3-.285.133-.218.341-.046.446.041-.248-.327.163-.609.209-.8l.1.171a.463.463,0,0,1-.06-.272l-.257.1c.045-.1.045-.186.153-.184-.168-.1-.428.079-.659-.127.131-.134-.14-.409.2-.455-.116.422.343-.047.4.311a.269.269,0,0,1,.005-.254c.039-.016.071.014.091.042.3-.405-.386-.186-.378-.606.192.054.365-.1.323-.165,0,.169-.32.081-.468-.074.15-.268-.111-.292-.094-.432l-.07.16c-.192-.054-.167-.188-.228-.376.15-.016.1.17.169.1-.338-.208.351-.469.122-.759.131-.135.362-.013.45-.131-.249-.325.264-.352.058-.694-.259.1-.2.116-.447-.124l.181.561-.376-.36c0,.169.163.357.119.459-.211-.172-.147-.154-.362-.073.388-.232-.226-.46.036-.728l.641.008c.285-.4-.329-.716-.167-1.239l-.112.169c-.255-.071-.035-.324-.139-.493.215.016.292-.09.426-.162-.159.008.014-.383-.413-.431l.281-.234c.116-.422-.61-.481-.537-.887.233.122.385-.063.551.209,0-.135.041-.257-.107-.26.134-.079-.288-.376-.085-.5-.094-.057-.318-.076-.3-.228a.2.2,0,0,1,.1,0c-.1,0-.144-.238-.381-.105.668-.418-.048-1.167.526-1.53a5.756,5.756,0,0,1-.157-.922c.064.017.107,0,.085.052.2-.37-.615-.228-.392-.649.345-.216.187.223.317.089.7-.058-.1-.509.316-.792l.041.068c.239-.217-.267-.529-.216-.883a.21.21,0,0,0,.106,0,1.776,1.776,0,0,1-.578-1.041c.276.106.146.155.426.089-.04-.152-.449.046-.528-.259.151-.1.283-.32.582-.349l.016.288c.386-.148-.013-.373.054-.524l.169.019c-.055-.441-.481-.447-.451-.921l-.128.049c-.421-.259.237-.217-.076-.475l.428-.078a4.175,4.175,0,0,1-.494-.906c.317.174.48.533.668.755,0-.17-.032-.576-.243-.664.042.068.147.154.08.221a.91.91,0,0,1-.494-.818c.829.059.209-.88.853-1.125-.306-.6.132-1.185.082-1.88-.645.246-.018-.2-.681-.161-.042-.162-.032-.224.012-.238l.4-.491c.193-.117.147.154.3.139.05-.355.28-.149.456-.383-.237.047-.339-.124-.248-.326l-.306.285c-.353-.5.556-.429.207-.929l.208.159c-.123-.257,0-.946-.528-1.2.077-.045.258-.105.306.008.079-.614-.567-1.365-.239-1.841l.162.046c-.047-.114-.3-.2-.142-.342.067.008.162.046.172-.007-.056-.06-.285-.3-.19-.455l.183.129c.212-.6-.445-.917-.555-1.418.477,0,.632-.47.709-.7l.068.008c.058-.7-.4-1.182-.583-1.827.518-.4.216-1.355.507-2-.087.1-.372-.016-.42-.13.1-.151-.331-.417.107-.393l-.008.054c.429-.114.315-.424.326-.666l-.572-.04c.833-.634-.306-1.66.44-2.006-.144-.153-.142-.342-.285-.494l.307.009a2.9,2.9,0,0,0,.044-1.159l.219.107c.02-.3-.885-.373-.9-.646l.459-.081c-.008-.516.394-1.037-.021-1.546.067.008.2.023.218.107.012-.243.31-.938-.319-.85.41-.006.041-.532-.14-.81l.3.044c-.386-.235-.491-.243-.6-.571.039-.077.242-.068.164.035.158-.258-.286-.2-.125-.515l.193.117c.023-.267-.08-.246-.306-.393-.121-.167.077-.505.35-.544-.167-.036-.389-.182-.31-.339a.217.217,0,0,1,.2.064c.206-.445-.351-.662-.055-.968a.3.3,0,0,0,.181-.052,2.334,2.334,0,0,1-.046.612c.279,0,.327-.286.712-.058-.21-.23-.666-.622-.536-.9a.378.378,0,0,1,.1-.037l.032.028a.164.164,0,0,0-.045-.176.54.54,0,0,0,.083-.231c.231-.033.125-.328.136-.47-.3.011-.256-.175-.508,0,.022-.023.037.027.049.122a.15.15,0,0,0,.032.061l-.027-.01c.009.093.015.215.02.354-.154-.113-.285-.23-.115-.388-.2-.073-.4-.154-.492-.2.425-.2.655-.571.917-.623-.171-.436-.113-1.026-.686-1.3-.073-.124.164-.143.254-.189.058.071.049.156.131.2-.146-.247-.056-.733-.457-.792.181-.312.369.175.3-.253l.122.057c.64-.843-1.021-1.37-.2-2.3-.05.065-.073.1-.141.11.363-1.065-.339-2.2.235-3.247.115-.3-.14-.332-.334-.514l.327-.064-.377-.313c-.277-.442.8-.765.28-1.325l-.22.072c.041-.2-.131-.637.123-.6-.04-.021-.23-.066-.115-.145l.172-.006-.294-.494c.124-.383.68.06.714-.5-.066-.208-.5-.592-.614-.513a.284.284,0,0,1-.278.22l-.089-.19c-.505-.035-1.022-.181-1.375.286l.309.325-.245.105-.015-.274c-.231.155-.027.254.113.364a.438.438,0,0,0-.27.136l.482.319c-.2.039-.392-.143-.5.071.224.15.443-.144.59.1-.229.156-.416.11-.22.292a.249.249,0,0,1-.27-.085c.156.163.066.43.334.514-.283.162.074.548-.4.532.114.052.375.287.395.435-.572-.272-.033.559-.647.487.515.2.229.729.514,1.086-.041-.02-.124-.059-.1-.091-.043.2-.2.26-.295.389.424.026.521.339.783.508-.409.246-.5-.15-.892-.072.344-.013.344.428.63.344-.253.189-.123.163-.475.26.531.032.09.175.416.332-.262.272-.5.07-.336.37-.162.142-.351-.125-.351-.125m.919,7.128h-.006c-.007-.061-.013-.114-.017-.147,0,.031.01.073.023.147m.005.6a1.493,1.493,0,0,0,.012-.259c.1-.022.214,0,.208.061-.071-.032-.131.109-.22.2m2.112-1.267c.043.1-.016.127-.079.14a.972.972,0,0,0-.036-.166l-.038-.011a.593.593,0,0,1,.153.037" transform="translate(-851.875 -683.914)" fill="#debf6a"/>
</svg>
