<?xml version="1.0" encoding="utf-8"?>
<!-- Generator: Adobe Illustrator 24.2.3, SVG Export Plug-In . SVG Version: 6.00 Build 0)  -->
<svg version="1.1" id="Capa_1" xmlns="http://www.w3.org/2000/svg" xmlns:xlink="http://www.w3.org/1999/xlink" x="0px" y="0px"
	 viewBox="0 0 504.4 504.4" style="enable-background:new 0 0 504.4 504.4;" xml:space="preserve">
<style type="text/css">
	.st0{fill:#F7B640;}
</style>
<g>
	<g>
		<g>
			<path class="st0" d="M443.3,157.8l29.4-12.7c-4.5-10.5-9.8-20.7-15.8-30.4l-27.3,16.7C434.8,139.9,439.4,148.7,443.3,157.8z"/>
			<path class="st0" d="M412.3,107.2L437,86.8c-7.3-8.8-15.2-17.1-23.7-24.8l-21.5,23.8C399.1,92.5,406,99.6,412.3,107.2z"/>
			<path class="st0" d="M483.9,177.5l-30.9,8.3c29.8,111.1-36.1,225.3-147.1,255.1c-17.5,4.7-35.6,7.1-53.8,7.1
				c-31.2,0-62.1-7.1-90.2-20.8l-5.9-2.9l-90.9,31.3l19.6-92.2l-3.9-5.7c-65-94.7-41-224.2,53.7-289.2
				c70.4-48.3,163.1-48.7,233.9-1.1L386.3,41C276.4-33.1,127.3-4,53.2,105.9c-53.7,79.6-54.7,183.6-2.6,264.3L22.1,504.4l132.1-45.5
				c30.8,13.9,64.2,21.2,98,21.1c132.7-0.1,240.1-107.7,240-240.4C492.2,218.7,489.4,197.8,483.9,177.5z"/>
			<path class="st0" d="M256.1,168.3l-79.2-79.2l-45.3,45.3c-31.2,31.3-31.2,81.9,0,113.1l113.2,113.1c31.2,31.2,81.9,31.2,113.1,0
				l45.3-45.2l-79.2-79.2l-22.6,22.6c-6.2,6.2-16.4,6.2-22.6,0l-45.3-45.3c-6.2-6.2-6.2-16.4,0-22.6L256.1,168.3z M256.1,281.4
				c18.7,18.7,49.1,18.7,67.9,0l33.9,33.9L335.2,338c-19,18.1-48.9,18.1-67.9,0L154.2,224.9c-18.7-18.8-18.7-49.1,0-67.9l22.6-22.6
				l33.9,33.9c-18.7,18.7-18.7,49.1,0,67.9L256.1,281.4z"/>
		</g>
	</g>
</g>
</svg>
